# xmcd CD database file
#
# Track frame offsets:
#	150
#	16466
#	34034
#	49186
#	71451
#	89941
#	108362
#	124278
#	141566
#	161622
#
# Disc length: 2505 seconds
#
# Revision: 0
# Processed by: cddbd v1.5.1PL2 Copyright (c) Steve Scherf et al.
# Submitted via: CDex 1.51
#
DISCID=9209c70a
DTITLE=Jay Soto - Long Time Coming
DYEAR=2005
DGENRE=Jazz
TTITLE0=Live It Up
TTITLE1=Caught In A Moment
TTITLE2=Long Time Coming
TTITLE3=Song For Mary-Cruz
TTITLE4=Reflections
TTITLE5=Never Let You Go
TTITLE6=Remeber The Night
TTITLE7=Miss My Cabana
TTITLE8=Closer To You
TTITLE9=Black Orpheus
EXTD=YEAR: 2005
EXTT0=
EXTT1=
EXTT2=
EXTT3=
EXTT4=
EXTT5=
EXTT6=
EXTT7=
EXTT8=
EXTT9=
PLAYORDER=
